# xmcd
#
# Track frame offsets:
#   150
#   12445
#   25070
#   40772
#   56580
#   69000
#   79782
#   89780
#   101125
#   112372
#   123215
#   136890
#
# Disc length: 1973 seconds
#
# Revision: 0
# Processed by: cddbd v1.5.2PL0 Copyright (c) Steve Scherf et al.
# Submitted via: GXTranscoder 2.0.1939
#
DISCID=9e07b30c
DTITLE=Kotlíkáøi - Bonanza
DYEAR=1998
DGENRE=Country
TTITLE0=Pochod amerických námoøníkù
TTITLE1=Mìsíc nad Portlendem
TTITLE2=Bononza
TTITLE3=Nashvile
TTITLE4=Oregon
TTITLE5=Texaská hymna
TTITLE6=Zuzana
TTITLE7=Mùj rodný dùm
TTITLE8=Socha Svobody
TTITLE9=Cowboy z Cherokee
TTITLE10=Ïáblovo stádo
TTITLE11=Rodné údolí
EXTD=
EXTT0=
EXTT1=
EXTT2=
EXTT3=
EXTT4=
EXTT5=
EXTT6=
EXTT7=
EXTT8=
EXTT9=
EXTT10=
EXTT11=
PLAYORDER=
